HIERARCHY
ROOT Hips
{
	OFFSET	0.000000	0.000000	0.000000
	CHANNELS 6 Xposition Yposition Zposition Zrotation Xrotation Yrotation
	JOINT LeftUpLeg
	{
		OFFSET	7.620000	0.000000	0.000000
		CHANNELS 3 Zrotation Xrotation Yrotation
		JOINT LeftLeg
		{
			OFFSET	0.000000	-44.449999	0.000000
			CHANNELS 3 Zrotation Xrotation Yrotation
			JOINT LeftFoot
			{
				OFFSET	0.000000	-39.369999	0.000000
				CHANNELS 3 Zrotation Xrotation Yrotation
				JOINT LeftFootHeel
				{
					OFFSET	0.000000	-8.890000	-3.810000
					CHANNELS 3 Zrotation Xrotation Yrotation
					End Site
					{
						OFFSET	0.000000	0.000000	15.240000
					}
				}
			}
		}
	}
	JOINT RightUpLeg
	{
		OFFSET	-7.620000	0.000000	0.000000
		CHANNELS 3 Zrotation Xrotation Yrotation
		JOINT RightLeg
		{
			OFFSET	0.000000	-44.449999	0.000000
			CHANNELS 3 Zrotation Xrotation Yrotation
			JOINT RightFoot
			{
				OFFSET	0.000000	-39.369999	0.000000
				CHANNELS 3 Zrotation Xrotation Yrotation
				JOINT RightFootHeel
				{
					OFFSET	0.000000	-8.890000	-3.810000
					CHANNELS 3 Zrotation Xrotation Yrotation
					End Site
					{
						OFFSET	0.000000	0.000000	15.240000
					}
				}
			}
		}
	}
	JOINT Spine
	{
		OFFSET	0.000000	7.620000	-2.540000
		CHANNELS 3 Zrotation Xrotation Yrotation
		JOINT Spine1
		{
			OFFSET	0.000000	7.620000	0.000000
			CHANNELS 3 Zrotation Xrotation Yrotation
			JOINT LeftShoulder
			{
				OFFSET	7.620000	33.020000	2.540000
				CHANNELS 3 Zrotation Xrotation Yrotation
				JOINT LeftArm
				{
					OFFSET	12.700000	0.000000	0.000000
					CHANNELS 3 Zrotation Xrotation Yrotation
					JOINT LeftForeArm
					{
						OFFSET	0.000000	-30.480000	0.000000
						CHANNELS 3 Zrotation Xrotation Yrotation
						JOINT LeftHand
						{
							OFFSET	0.000000	-24.130000	0.000000
							CHANNELS 3 Zrotation Xrotation Yrotation
							End Site
							{
								OFFSET	0.000000	-17.780000	0.000000
							}
						}
					}
				}
			}
			JOINT RightShoulder
			{
				OFFSET	-7.620000	33.020000	2.540000
				CHANNELS 3 Zrotation Xrotation Yrotation
				JOINT RightArm
				{
					OFFSET	-12.700000	0.000000	0.000000
					CHANNELS 3 Zrotation Xrotation Yrotation
					JOINT RightForeArm
					{
						OFFSET	0.000000	-30.480000	0.000000
						CHANNELS 3 Zrotation Xrotation Yrotation
						JOINT RightHand
						{
							OFFSET	0.000000	-24.130000	0.000000
							CHANNELS 3 Zrotation Xrotation Yrotation
							End Site
							{
								OFFSET	0.000000	-17.780000	0.000000
							}
						}
					}
				}
			}
			JOINT Neck
			{
				OFFSET	0.000000	38.099999	2.540000
				CHANNELS 3 Zrotation Xrotation Yrotation
				JOINT Head
				{
					OFFSET	0.000000	16.510000	0.000000
					CHANNELS 3 Zrotation Xrotation Yrotation
					End Site
					{
						OFFSET	0.000000	10.160000	0.000000
					}
				}
			}
		}
	}
}
MOTION
Frames:     19
Frame Time: 0.016667
0.885222	95.624065	4.956919	0.000000	0.000000	0.000000	-81.484451	-3.806606	52.538166	71.178268	-49.071587	-17.751886	0.000001	-0.000000	-0.000000	0.	0.	0.	-1.982081	0.564700	3.469786	-1.063734	1.686684	-5.363162	0.000000	-0.000001	-0.000001	0.	0.	0.	0.000000	0.000000	0.000000	0.000000	0.000000	0.000000	0.000000	0.000000	0.000000	0.000000	0.000000	0.000000	0.000000	0.000000	0.000000	0.000000	0.000000	0.000000	0.000000	0.000000	0.000000	0.000000	0.000000	0.000000	0.000000	0.000000	0.000000	0.000000	0.000000	0.000000	0.000000	0.000000	0.000000	0.000000	0.000000	0.000000	
0.899370	95.624065	5.061091	0.000000	0.000000	0.000000	-81.484451	-3.806606	52.538166	71.178268	-49.071587	-17.751886	0.000001	-0.000000	-0.000000	0.	0.	0.	-1.982081	0.564700	3.469786	-1.063734	1.686684	-5.363162	0.000000	-0.000001	-0.000001	0.	0.	0.	0.000000	0.000000	0.000000	0.000000	0.000000	0.000000	0.000000	0.000000	0.000000	0.000000	0.000000	0.000000	0.000000	0.000000	0.000000	0.000000	0.000000	0.000000	0.000000	0.000000	0.000000	0.000000	0.000000	0.000000	0.000000	0.000000	0.000000	0.000000	0.000000	0.000000	0.000000	0.000000	0.000000	0.000000	0.000000	0.000000	
0.899370	95.624065	5.061091	0.000000	0.000000	0.000000	-81.484451	-3.806606	52.538166	71.178268	-49.071587	-17.751886	0.000001	-0.000000	-0.000000	0.	0.	0.	-1.982081	0.564700	3.469786	-1.063734	1.686684	-5.363162	0.000000	-0.000001	-0.000001	0.	0.	0.	0.000000	0.000000	0.000000	0.000000	0.000000	0.000000	0.000000	0.000000	0.000000	0.000000	0.000000	0.000000	0.000000	0.000000	0.000000	0.000000	0.000000	0.000000	0.000000	0.000000	0.000000	0.000000	0.000000	0.000000	0.000000	0.000000	0.000000	0.000000	0.000000	0.000000	0.000000	0.000000	0.000000	0.000000	0.000000	0.000000	
1.138668	95.638124	5.073133	0.000000	0.000000	0.000000	-82.292542	-3.911359	51.261890	71.722198	-47.936981	-17.221340	0.000000	-0.000000	-0.000001	0.	0.	0.	-2.171056	0.433722	3.507595	-0.971692	1.945861	-5.369603	-0.000001	-0.000002	-0.000000	0.	0.	0.	0.000000	0.000000	0.000000	0.000000	0.000000	0.000000	0.000000	0.000000	0.000000	0.000000	0.000000	0.000000	0.000000	0.000000	0.000000	0.000000	0.000000	0.000000	0.000000	0.000000	0.000000	0.000000	0.000000	0.000000	0.000000	0.000000	0.000000	0.000000	0.000000	0.000000	0.000000	0.000000	0.000000	0.000000	0.000000	0.000000	
1.282224	95.707025	5.120514	0.000000	0.000000	0.000000	-81.283905	-3.840266	51.322281	70.732086	-47.759727	-17.917818	0.000001	0.000000	-0.000000	0.	0.	0.	-2.057968	0.493964	3.498560	-1.046219	1.825904	-5.366995	-0.000000	-0.000001	-0.000001	0.	0.	0.	0.000000	0.000000	0.000000	0.000000	0.000000	0.000000	0.000000	0.000000	0.000000	0.000000	0.000000	0.000000	0.000000	0.000000	0.000000	0.000000	0.000000	0.000000	0.000000	0.000000	0.000000	0.000000	0.000000	0.000000	0.000000	0.000000	0.000000	0.000000	0.000000	0.000000	0.000000	0.000000	0.000000	0.000000	0.000000	0.000000	
1.326259	95.632136	5.128938	0.000000	0.000000	0.000000	-81.283905	-3.840266	51.322281	70.732086	-47.759727	-17.917818	0.000001	0.000000	-0.000000	0.	0.	0.	-2.057968	0.493964	3.498560	-1.046219	1.825904	-5.366995	-0.000000	-0.000001	-0.000001	0.	0.	0.	0.000000	0.000000	0.000000	0.000000	0.000000	0.000000	0.000000	0.000000	0.000000	0.000000	0.000000	0.000000	0.000000	0.000000	0.000000	0.000000	0.000000	0.000000	0.000000	0.000000	0.000000	0.000000	0.000000	0.000000	0.000000	0.000000	0.000000	0.000000	0.000000	0.000000	0.000000	0.000000	0.000000	0.000000	0.000000	0.000000	
1.326259	95.632136	5.128938	0.000000	0.000000	0.000000	-81.283905	-3.840266	51.322281	70.732086	-47.759727	-17.917818	0.000001	0.000000	-0.000000	0.	0.	0.	-2.057968	0.493964	3.498560	-1.046219	1.825904	-5.366995	-0.000000	-0.000001	-0.000001	0.	0.	0.	0.000000	0.000000	0.000000	0.000000	0.000000	0.000000	0.000000	0.000000	0.000000	0.000000	0.000000	0.000000	0.000000	0.000000	0.000000	0.000000	0.000000	0.000000	0.000000	0.000000	0.000000	0.000000	0.000000	0.000000	0.000000	0.000000	0.000000	0.000000	0.000000	0.000000	0.000000	0.000000	0.000000	0.000000	0.000000	0.000000	
1.194944	95.761644	5.192681	0.000000	0.000000	0.000000	-78.740669	-3.074485	52.126572	68.328514	-48.195286	-19.205494	0.000001	-0.000000	-0.000001	0.	0.	0.	-1.568127	0.457960	3.455450	-1.458990	1.492406	-5.349682	-0.000000	-0.000001	-0.000000	0.	0.	0.	0.000000	0.000000	0.000000	0.000000	0.000000	0.000000	0.000000	0.000000	0.000000	0.000000	0.000000	0.000000	0.000000	0.000000	0.000000	0.000000	0.000000	0.000000	0.000000	0.000000	0.000000	0.000000	0.000000	0.000000	0.000000	0.000000	0.000000	0.000000	0.000000	0.000000	0.000000	0.000000	0.000000	0.000000	0.000000	0.000000	
1.194944	95.761644	5.192682	0.000000	0.000000	0.000000	-78.740669	-3.074485	52.126572	68.328514	-48.195286	-19.205494	0.000001	-0.000000	-0.000001	0.	0.	0.	-1.568127	0.457960	3.455450	-1.458990	1.492406	-5.349682	-0.000000	-0.000001	-0.000000	0.	0.	0.	0.000000	0.000000	0.000000	0.000000	0.000000	0.000000	0.000000	0.000000	0.000000	0.000000	0.000000	0.000000	0.000000	0.000000	0.000000	0.000000	0.000000	0.000000	0.000000	0.000000	0.000000	0.000000	0.000000	0.000000	0.000000	0.000000	0.000000	0.000000	0.000000	0.000000	0.000000	0.000000	0.000000	0.000000	0.000000	0.000000	
1.142510	95.770955	5.169668	0.000000	0.000000	0.000000	-77.318329	-3.206685	52.073654	66.943344	-47.803761	-20.446991	0.000000	-0.000000	-0.000001	0.	0.	0.	-1.495310	0.402983	3.436482	-1.528852	1.482507	-5.349791	-0.000001	-0.000000	-0.000001	0.	0.	0.	0.000000	0.000000	0.000000	0.000000	0.000000	0.000000	0.000000	0.000000	0.000000	0.000000	0.000000	0.000000	0.000000	0.000000	0.000000	0.000000	0.000000	0.000000	0.000000	0.000000	0.000000	0.000000	0.000000	0.000000	0.000000	0.000000	0.000000	0.000000	0.000000	0.000000	0.000000	0.000000	0.000000	0.000000	0.000000	0.000000	
1.142510	95.770955	5.169668	0.000000	0.000000	0.000000	-77.318329	-3.206685	52.073654	66.943344	-47.803761	-20.446991	0.000000	-0.000000	-0.000001	0.	0.	0.	-1.495310	0.402983	3.436482	-1.528852	1.482507	-5.349791	-0.000001	-0.000000	-0.000001	0.	0.	0.	0.000000	0.000000	0.000000	0.000000	0.000000	0.000000	0.000000	0.000000	0.000000	0.000000	0.000000	0.000000	0.000000	0.000000	0.000000	0.000000	0.000000	0.000000	0.000000	0.000000	0.000000	0.000000	0.000000	0.000000	0.000000	0.000000	0.000000	0.000000	0.000000	0.000000	0.000000	0.000000	0.000000	0.000000	0.000000	0.000000	
1.142510	95.634762	5.169669	0.000000	0.000000	0.000000	-77.318329	-3.206685	52.073654	66.943344	-47.803761	-20.446991	0.000000	-0.000000	-0.000001	0.	0.	0.	-1.495310	0.402983	3.436482	-1.528852	1.482507	-5.349791	-0.000001	-0.000000	-0.000001	0.	0.	0.	0.000000	0.000000	0.000000	0.000000	0.000000	0.000000	0.000000	0.000000	0.000000	0.000000	0.000000	0.000000	0.000000	0.000000	0.000000	0.000000	0.000000	0.000000	0.000000	0.000000	0.000000	0.000000	0.000000	0.000000	0.000000	0.000000	0.000000	0.000000	0.000000	0.000000	0.000000	0.000000	0.000000	0.000000	0.000000	0.000000	
0.951482	95.684013	4.965395	0.000000	0.000000	0.000000	-72.737106	-5.058349	50.011120	63.984695	-44.476875	-24.161894	-0.000000	-0.000000	-0.000000	0.	0.	0.	-1.439492	0.361255	3.421974	-1.582437	1.513868	-5.338264	-0.000000	-0.000000	-0.000001	0.	0.	0.	0.000000	0.000000	0.000000	0.000000	0.000000	0.000000	0.000000	0.000000	0.000000	0.000000	0.000000	0.000000	0.000000	0.000000	0.000000	0.000000	0.000000	0.000000	0.000000	0.000000	0.000000	0.000000	0.000000	0.000000	0.000000	0.000000	0.000000	0.000000	0.000000	0.000000	0.000000	0.000000	0.000000	0.000000	0.000000	0.000000	
0.827192	95.573961	4.837532	0.000000	0.000000	0.000000	-70.665878	-6.047635	48.591282	63.168064	-42.774250	-25.287653	0.000001	-0.000000	-0.000001	0.	0.	0.	-1.278208	0.243637	3.380214	-1.737711	1.595075	-5.306799	0.000001	-0.000002	-0.000001	0.	0.	0.	0.000000	0.000000	0.000000	0.000000	0.000000	0.000000	0.000000	0.000000	0.000000	0.000000	0.000000	0.000000	0.000000	0.000000	0.000000	0.000000	0.000000	0.000000	0.000000	0.000000	0.000000	0.000000	0.000000	0.000000	0.000000	0.000000	0.000000	0.000000	0.000000	0.000000	0.000000	0.000000	0.000000	0.000000	0.000000	0.000000	
0.827044	95.573961	4.837476	0.000000	0.000000	0.000000	-70.665878	-6.047635	48.591282	63.168064	-42.774250	-25.287653	0.000001	-0.000000	-0.000001	0.	0.	0.	-1.278208	0.243637	3.380214	-1.737711	1.595075	-5.306799	0.000001	-0.000002	-0.000001	0.	0.	0.	0.000000	0.000000	0.000000	0.000000	0.000000	0.000000	0.000000	0.000000	0.000000	0.000000	0.000000	0.000000	0.000000	0.000000	0.000000	0.000000	0.000000	0.000000	0.000000	0.000000	0.000000	0.000000	0.000000	0.000000	0.000000	0.000000	0.000000	0.000000	0.000000	0.000000	0.000000	0.000000	0.000000	0.000000	0.000000	0.000000	
0.827044	95.573961	4.837477	0.000000	0.000000	0.000000	-70.665878	-6.047635	48.591282	63.168064	-42.774250	-25.287653	0.000001	-0.000000	-0.000001	0.	0.	0.	-1.278208	0.243637	3.380214	-1.737711	1.595075	-5.306799	0.000001	-0.000002	-0.000001	0.	0.	0.	0.000000	0.000000	0.000000	0.000000	0.000000	0.000000	0.000000	0.000000	0.000000	0.000000	0.000000	0.000000	0.000000	0.000000	0.000000	0.000000	0.000000	0.000000	0.000000	0.000000	0.000000	0.000000	0.000000	0.000000	0.000000	0.000000	0.000000	0.000000	0.000000	0.000000	0.000000	0.000000	0.000000	0.000000	0.000000	0.000000	
0.605501	95.722344	4.694348	0.000000	0.000000	0.000000	-67.701126	-6.772911	44.984814	62.718452	-39.357193	-24.890591	-0.000000	-0.000000	0.000000	0.	0.	0.	-0.799596	-0.095048	3.336256	-2.102513	1.601320	-5.231761	0.000000	-0.000002	-0.000001	0.	0.	0.	0.000000	0.000000	0.000000	0.000000	0.000000	0.000000	0.000000	0.000000	0.000000	0.000000	0.000000	0.000000	0.000000	0.000000	0.000000	0.000000	0.000000	0.000000	0.000000	0.000000	0.000000	0.000000	0.000000	0.000000	0.000000	0.000000	0.000000	0.000000	0.000000	0.000000	0.000000	0.000000	0.000000	0.000000	0.000000	0.000000	
0.580491	95.524982	4.695306	0.000000	0.000000	0.000000	-66.927765	-6.531746	43.621487	62.279675	-38.060020	-24.417538	0.000000	-0.000000	-0.000001	0.	0.	0.	-0.780930	-0.109224	3.331553	-2.120425	1.601330	-5.230867	-0.000000	-0.000001	-0.000001	0.	0.	0.	0.000000	0.000000	0.000000	0.000000	0.000000	0.000000	0.000000	0.000000	0.000000	0.000000	0.000000	0.000000	0.000000	0.000000	0.000000	0.000000	0.000000	0.000000	0.000000	0.000000	0.000000	0.000000	0.000000	0.000000	0.000000	0.000000	0.000000	0.000000	0.000000	0.000000	0.000000	0.000000	0.000000	0.000000	0.000000	0.000000	
0.591415	95.528305	4.693585	0.000000	0.000000	0.000000	-66.927765	-6.531746	43.621487	62.178108	-38.039764	-24.479490	0.000001	-0.000000	0.000000	0.	0.	0.	-0.793817	-0.099426	3.334802	-2.108184	1.612458	-5.228362	-0.000001	-0.000002	-0.000001	0.	0.	0.	0.000000	0.000000	0.000000	0.000000	0.000000	0.000000	0.000000	0.000000	0.000000	0.000000	0.000000	0.000000	0.000000	0.000000	0.000000	0.000000	0.000000	0.000000	0.000000	0.000000	0.000000	0.000000	0.000000	0.000000	0.000000	0.000000	0.000000	0.000000	0.000000	0.000000	0.000000	0.000000	0.000000	0.000000	0.000000	0.000000	
